<svg id="Layer_1" data-name="Layer 1" xmlns="http://www.w3.org/2000/svg" viewBox="0 0 595.28 841.89"><defs><style>.cls-1,.cls-5{fill:#fff;}.cls-1,.cls-3,.cls-4,.cls-5{stroke:#000;}.cls-2{isolation:isolate;font-size:12px;font-family:ArialMT, Arial;}.cls-3,.cls-6{fill:none;}.cls-3,.cls-4,.cls-5{stroke-miterlimit:10;}.cls-7{letter-spacing:-0.06em;}</style></defs><rect class="cls-1" x="230.65" y="264.66" width="120" height="30" rx="4.5"/><text class="cls-2" transform="translate(249.8 283.25)">iniciar t0 com 0</text><path class="cls-3" d="M290.65,234.66v23.63"/><path class="cls-4" d="M290.65,263.54l-3.5-7,3.5,1.75,3.5-1.75Z"/><ellipse class="cls-1" cx="290.65" cy="194.66" rx="60" ry="40"/><text class="cls-2" transform="translate(267.8 198.25)">Começo</text><path class="cls-3" d="M290.65,354.66v23.63"/><path class="cls-4" d="M290.65,383.54l-3.5-7,3.5,1.75,3.5-1.75Z"/><rect class="cls-1" x="230.65" y="324.66" width="120" height="30" rx="4.5"/><text class="cls-2" transform="translate(246.46 343.25)">iniciar t1 com 20</text><path class="cls-3" d="M290.65,464.66v63.63"/><path class="cls-4" d="M290.65,533.54l-3.5-7,3.5,1.75,3.5-1.75Z"/><path class="cls-3" d="M330.65,424.66h140l-.11,30.42"/><path class="cls-4" d="M470.65,461.09l-3.5-7,3.5,1.75,3.5-1.75Z"/><path class="cls-5" d="M290.65,384.66l40,40-40,40-40-40Z"/><text class="cls-2" transform="translate(268.29 428.25)">a0 &lt; t1?</text><path class="cls-3" d="M290.65,564.66v13.63"/><path class="cls-4" d="M290.65,583.54l-3.5-7,3.5,1.75,3.5-1.75Z"/><rect class="cls-1" x="230.65" y="534.66" width="120" height="30" rx="4.5"/><text class="cls-2" transform="translate(235.12 553.25)">incrementar t0 em t1</text><path class="cls-3" d="M290.65,614.66v30h-110v-220h63.63"/><path class="cls-4" d="M249.53,424.66l-7,3.5,1.75-3.5-1.75-3.5Z"/><rect class="cls-1" x="230.65" y="584.66" width="120" height="30" rx="4.5"/><text class="cls-2" transform="translate(236.79 603.25)">incrementar t1 em 3</text><rect class="cls-6" x="120.65" y="504.66" width="60" height="30"/><text class="cls-2" transform="translate(136.8 523.25)">Loop</text><path class="cls-3" d="M470.65,494.66v33.63"/><path class="cls-4" d="M470.65,533.54l-3.5-7,3.5,1.75,3.5-1.75Z"/><path class="cls-1" d="M413,462H528.25c2.58,0,4.67,2.65,4.67,5.92v27.62c0,3.27-2.09,5.92-4.67,5.92H413c-2.58,0-4.67-2.65-4.67-5.92V468C408.37,464.69,410.46,462,413,462Z"/><text class="cls-2" transform="translate(410.62 477.77)">mover valor de t0 para <tspan x="53.69" y="14.4">v0</tspan></text><ellipse class="cls-1" cx="470.65" cy="574.66" rx="60" ry="40"/><text class="cls-2" transform="translate(448.14 578.25)">Término</text><rect class="cls-6" x="340.65" y="394.66" width="60" height="30"/><text class="cls-2" transform="translate(355.47 413.25)">Falso</text><rect class="cls-6" x="290.65" y="474.66" width="60" height="30"/><text class="cls-2" transform="translate(297.79 493.25)"><tspan class="cls-7">V</tspan><tspan x="7.34" y="0">erdade</tspan></text><path class="cls-3" d="M290.65,294.66v23.63"/><path class="cls-4" d="M290.65,323.54l-3.5-7,3.5,1.75,3.5-1.75Z"/></svg>