<svg id="Layer_1" data-name="Layer 1" xmlns="http://www.w3.org/2000/svg" viewBox="0 0 595.28 841.89"><defs><style>.cls-1,.cls-6{fill:none;}.cls-1,.cls-2,.cls-3,.cls-5{stroke:#000;}.cls-1,.cls-2,.cls-5{stroke-miterlimit:10;}.cls-3,.cls-5{fill:#fff;}.cls-4{isolation:isolate;font-size:12px;font-family:ArialMT, Arial;}.cls-7{letter-spacing:-0.06em;}</style></defs><path class="cls-1" d="M266.78,108v23.63"/><path class="cls-2" d="M266.78,136.87l-3.5-7,3.5,1.75,3.5-1.75Z"/><ellipse class="cls-3" cx="266.78" cy="67.99" rx="60" ry="40"/><text class="cls-4" transform="translate(243.94 71.55)">Começo</text><path class="cls-1" d="M266.78,168v23.63"/><path class="cls-2" d="M266.78,196.87l-3.5-7,3.5,1.75,3.5-1.75Z"/><rect class="cls-3" x="206.78" y="137.99" width="120" height="30" rx="4.5"/><text class="cls-4" transform="translate(227.26 156.55)">T0 = $zero + 0</text><path class="cls-1" d="M266.78,228v23.63"/><path class="cls-2" d="M266.78,256.87l-3.5-7,3.5,1.75,3.5-1.75Z"/><rect class="cls-3" x="206.78" y="197.99" width="120" height="30" rx="4.5"/><text class="cls-4" transform="translate(223.92 216.55)">T1 = $zero + 20</text><path class="cls-1" d="M266.78,338v63.63"/><path class="cls-2" d="M266.78,406.87l-3.5-7,3.5,1.75,3.5-1.75Z"/><path class="cls-1" d="M306.78,298l136,0V401.62"/><path class="cls-2" d="M442.78,406.87l-3.5-7,3.5,1.75,3.5-1.75Z"/><path class="cls-5" d="M266.78,258l40,40-40,40-40-40Z"/><text class="cls-4" transform="translate(244.43 301.55)">a0 &lt; t1?</text><path class="cls-1" d="M266.78,438v23.63"/><path class="cls-2" d="M266.78,466.87l-3.5-7,3.5,1.75,3.5-1.75Z"/><rect class="cls-3" x="206.78" y="407.99" width="120" height="30" rx="4.5"/><text class="cls-4" transform="translate(251.1 426.55)">t2 = 1</text><path class="cls-1" d="M266.78,548v73.63"/><path class="cls-2" d="M266.78,626.87l-3.5-7,3.5,1.75,3.5-1.75Z"/><path class="cls-5" d="M266.78,468l40,40-40,40-40-40Z"/><text class="cls-4" transform="translate(245.77 511.55)">T2 = 0?</text><path class="cls-1" d="M266.78,658v33.63"/><path class="cls-2" d="M266.78,696.87l-3.5-7,3.5,1.75,3.5-1.75Z"/><rect class="cls-3" x="206.78" y="627.99" width="120" height="30" rx="4.5"/><text class="cls-4" transform="translate(237.59 646.55)">t0 = t0 + t1</text><path class="cls-1" d="M266.78,728v60h-144V298l97.63,0"/><path class="cls-2" d="M225.66,298l-7,3.5,1.75-3.5-1.75-3.5Z"/><rect class="cls-3" x="206.78" y="697.99" width="120" height="30" rx="4.5"/><text class="cls-4" transform="translate(239.26 716.55)">t1 = t1 + 3</text><path class="cls-1" d="M442.78,548v73.63"/><path class="cls-2" d="M442.78,626.87l-3.5-7,3.5,1.75,3.5-1.75Z"/><path class="cls-5" d="M442.78,468l40,40-40,40-40-40Z"/><text class="cls-4" transform="translate(421.77 511.55)">T2 = 0?</text><path class="cls-1" d="M442.78,438v23.63"/><path class="cls-2" d="M442.78,466.87l-3.5-7,3.5,1.75,3.5-1.75Z"/><rect class="cls-3" x="382.78" y="407.99" width="120" height="30" rx="4.5"/><text class="cls-4" transform="translate(427.1 426.55)">t2 = 0</text><path class="cls-1" d="M442.78,658v73.63"/><path class="cls-2" d="M442.78,736.87l-3.5-7,3.5,1.75,3.5-1.75Z"/><rect class="cls-3" x="382.78" y="627.99" width="120" height="30" rx="4.5"/><text class="cls-4" transform="translate(413.59 646.55)">t0 = t0 + t1</text><ellipse class="cls-3" cx="442.78" cy="777.99" rx="60" ry="40"/><text class="cls-4" transform="translate(420.28 781.55)">Término</text><rect class="cls-6" x="306.78" y="267.99" width="60" height="30"/><text class="cls-4" transform="translate(321.61 286.55)">Falso</text><rect class="cls-6" x="266.78" y="337.99" width="60" height="30"/><text class="cls-4" transform="translate(273.93 356.55)"><tspan class="cls-7">V</tspan><tspan x="7.34" y="0">erdade</tspan></text><rect class="cls-6" x="72.78" y="527.99" width="60" height="30"/><text class="cls-4" transform="translate(88.93 546.55)">Loop</text><rect class="cls-6" x="442.78" y="547.99" width="60" height="30"/><text class="cls-4" transform="translate(449.93 566.55)"><tspan class="cls-7">V</tspan><tspan x="7.34" y="0">erdade</tspan></text><rect class="cls-6" x="266.78" y="547.99" width="60" height="30"/><text class="cls-4" transform="translate(281.61 566.55)">Falso</text></svg>